<?xml version="1.0" standalone="no"?><!DOCTYPE svg PUBLIC "-//W3C//DTD SVG 1.1//EN" "http://www.w3.org/Graphics/SVG/1.1/DTD/svg11.dtd"><svg t="1767618614375" class="icon" viewBox="0 0 1140 1024" version="1.1" xmlns="http://www.w3.org/2000/svg" p-id="3384" xmlns:xlink="http://www.w3.org/1999/xlink" width="71.25" height="64"><path d="M1098.84412 937.694761L1008.651257 847.501898c30.323462-30.323462 40.431283-70.754746 40.431283-120.516325 0-120.516325-100.300683-231.702354-231.702354-231.702354-120.516325 0-231.702354 110.408504-231.702353 231.702354 0 130.624146 110.408504 231.702354 231.702353 231.702354 50.539104 0 90.970387-10.107821 120.516325-40.431283l90.970388 90.970387c10.107821 10.107821 22.548216 14.772969 34.98861 14.772969s24.88079-4.665148 34.988611-14.772969c20.215642-20.993166 20.215642-51.316629 0-71.53227z m-281.463934-69.977221c-80.862566 0-140.731967-60.646925-140.731966-140.731967 0-80.862566 60.646925-140.731967 140.731966-140.731966s140.731967 59.8694 140.731967 139.954442c0 80.862566-60.646925 141.509491-140.731967 141.509491z" fill="#76D1FB" p-id="3385"></path><path d="M1129.167582 424.528474l-60.646925 160.947608c-50.539104-80.862566-140.731967-140.731967-251.917995-140.731967-150.839787 0-282.241458 130.624146-282.241458 282.241458 0 70.754746 30.323462 140.731967 70.754746 191.271071h-513.166287c-40.431283 0-100.300683-20.215642-90.970388-80.862567L182.92005 404.312832c20.215642-50.539104 60.646925-80.862566 110.408504-80.862566H1059.190361c69.977221 0 90.192863 50.539104 69.977221 101.078208z" fill="#76D1FB" p-id="3386"></path><path d="M958.112153 223.149582v40.431284H253.674795c-50.539104 0-101.078208 30.323462-120.516325 100.300683L1.7568 656.230828V92.525437C1.7568 41.986333 42.188083 1.555049 92.727187 1.555049h342.110858c30.323462 0 50.539104 20.215642 70.754746 40.431284l20.215641 50.539104c20.215642 30.323462 40.431283 50.539104 70.754746 50.539104h272.133637c48.984055-0.777525 89.415338 39.653759 89.415338 80.085041z" fill="#76D1FB" p-id="3387"></path></svg>